<svg width="2042" height="2042" viewBox="0 0 2042 2042" fill="none" xmlns="http://www.w3.org/2000/svg">
<circle cx="1021" cy="1021" r="1021" fill="#121212"/>
<path d="M1612.5 1228.71C1612.5 1631.81 1379.35 2009.06 1016.5 2009.06C653.649 2009.06 213 1831.02 213 1427.91C213 1024.8 614.149 298.013 977 298.013C1339.85 298.013 1612.5 825.597 1612.5 1228.71Z" fill="#EAEAEA"/>
<path fill-rule="evenodd" clip-rule="evenodd" d="M1620.66 321.838C1620.66 321.838 1861.96 626.506 1894.53 831.155C1927.09 1035.8 1894.53 1281.32 1894.53 1281.32C1802.76 1697.85 1484.96 1995.97 1075.23 2009.06C1075.23 2009.06 1015.43 1719.74 1010.5 1657.86C1005.58 1595.97 1027.74 1506.2 1075.23 1460.87C1122.7 1415.55 1201 1376.38 1263 1361.51C1325 1346.64 1474.64 1322 1531.17 1281.32C1587.7 1240.63 1574.84 1101.07 1544.01 1071.39C1513.18 1041.71 955.821 712.152 800.116 708.082C644.41 704.012 402.502 1312.36 365.5 1798.7C231.451 1636.78 127.678 1482.69 113.734 1325.85L87.6437 1207.07L71 1043.12L76.8478 939.574L94.8409 812.169L146.571 650.248C344.496 293.92 579.63 69.0584 1002.26 69.0584C1424.92 69.0584 1380.03 166.933 1620.66 321.838ZM1176.83 390.679C1201.19 468.457 850.402 619.735 878.068 699.299C870.155 693.797 862.73 687.572 855.863 680.606C796.043 620.041 802.567 527.655 870.426 474.28L968.708 396.936C1028.51 349.899 1115.94 348.821 1176.83 390.679ZM990.535 718.651C1009.53 715.796 1185.34 548.761 1193.68 534.693C1202.01 520.626 1207.79 519.612 1222.66 534.693C1237.53 549.774 1234.83 628.8 1193.68 669.185C1152.53 709.57 1165.5 700.017 1123 717.144C1080.5 734.271 971.538 721.506 990.535 718.651Z" fill="#121212"/>
<ellipse cx="989.5" cy="1002.94" rx="92.5" ry="98.8064" fill="#121212"/>
</svg>
